<svg xmlns="http://www.w3.org/2000/svg" viewBox="0 0 24 24"><path d="M23.997 6.124a9.23 9.23 0 0 0-.24-2.19c-.317-1.3-1.062-2.3-2.18-3.043C21.003.517 20.373.285 19.7.164 19.183.07 18.662.03 18.136.014l-.124-.013H5.988l-.455.026c-.747.043-1.5.123-2.193.4-1.336.53-2.3 1.452-2.865 2.78-.192.448-.292.925-.363 1.408a10.61 10.61 0 0 0-.1 1.18c0 .032-.007.062-.01.093v12.223l.027.424c.05.815.154 1.624.497 2.373.65 1.42 1.738 2.353 3.234 2.802.42.127.856.187 1.293.228.555.053 1.1.06 1.667.06h11.03a12.5 12.5 0 0 0 1.57-.1c.823-.106 1.597-.35 2.296-.8.84-.553 1.472-1.287 1.88-2.208.186-.42.293-.87.37-1.324.113-.675.138-1.358.137-2.04L24 6.124zm-6.423 4v5.712c0 .417-.058.827-.244 1.206-.3.6-.76.962-1.388 1.14-.35.1-.706.157-1.07.173-.95.045-1.773-.6-1.943-1.536a1.88 1.88 0 0 1 1.038-2.022c.323-.16.67-.25 1.018-.324l1.134-.24c.274-.063.457-.23.5-.516.014-.063.02-.13.02-.193l-.002-5.443c0-.062-.01-.125-.026-.185-.04-.15-.15-.243-.304-.234-.16.01-.318.035-.475.066l-2.28.456-3.7.748c-.016.003-.032.01-.048.013-.277.077-.377.203-.4.5L9.42 17.36c0 .42-.047.836-.215 1.227-.278.64-.77 1.04-1.434 1.233-.35.1-.7.16-1.075.172-.96.036-1.755-.6-1.92-1.544-.14-.812.23-1.685 1.154-2.075.357-.15.73-.232 1.108-.3l.86-.177c.383-.083.583-.323.6-.714V6.14a1.59 1.59 0 0 1 .042-.37c.07-.285.273-.448.546-.518l.774-.165 2.2-.444 2.27-.46 2-.403.664-.106a.49.49 0 0 1 .554.482c.008.073.012.148.012.223v5.732z"/></svg>